<mxfile host="app.diagrams.net" modified="2023-01-31T19:24:47.549Z" agent="5.0 (Macintosh; Intel Mac OS X 10_15_7) AppleWebKit/537.36 (KHTML, like Gecko) Chrome/109.0.0.0 Safari/537.36" etag="qqYmBkFK2uxMqqiKB-q2" version="20.8.13" type="github" pages="2">
  <diagram name="Page-1" id="cj9PZgIlMhxPseQjY0xN">
    <mxGraphModel dx="2509" dy="1037" grid="1" gridSize="10" guides="1" tooltips="1" connect="1" arrows="1" fold="1" page="1" pageScale="1" pageWidth="1400" pageHeight="850" math="0" shadow="0">
      <root>
        <mxCell id="0" />
        <mxCell id="1" parent="0" />
        <mxCell id="NsWmeIEgaXkxdFXf4ZW7-6" value="W1" style="ellipse;whiteSpace=wrap;html=1;aspect=fixed;" vertex="1" parent="1">
          <mxGeometry x="670" y="385" width="80" height="80" as="geometry" />
        </mxCell>
        <mxCell id="NsWmeIEgaXkxdFXf4ZW7-8" value="RN1" style="ellipse;whiteSpace=wrap;html=1;aspect=fixed;fillColor=#fff2cc;strokeColor=#d6b656;" vertex="1" parent="1">
          <mxGeometry x="820" y="230" width="70" height="70" as="geometry" />
        </mxCell>
        <mxCell id="NsWmeIEgaXkxdFXf4ZW7-9" value="RN2" style="ellipse;whiteSpace=wrap;html=1;aspect=fixed;fillColor=#f8cecc;strokeColor=#b85450;" vertex="1" parent="1">
          <mxGeometry x="820" y="390" width="70" height="70" as="geometry" />
        </mxCell>
        <mxCell id="NsWmeIEgaXkxdFXf4ZW7-10" value="RN3" style="ellipse;whiteSpace=wrap;html=1;aspect=fixed;fillColor=#d5e8d4;strokeColor=#82b366;" vertex="1" parent="1">
          <mxGeometry x="820" y="530" width="70" height="70" as="geometry" />
        </mxCell>
        <mxCell id="NsWmeIEgaXkxdFXf4ZW7-11" value="PRN1" style="ellipse;whiteSpace=wrap;html=1;aspect=fixed;fillColor=#fff2cc;strokeColor=#d6b656;" vertex="1" parent="1">
          <mxGeometry x="950" y="230" width="70" height="70" as="geometry" />
        </mxCell>
        <mxCell id="NsWmeIEgaXkxdFXf4ZW7-12" value="PRN2" style="ellipse;whiteSpace=wrap;html=1;aspect=fixed;fillColor=#f8cecc;strokeColor=#b85450;" vertex="1" parent="1">
          <mxGeometry x="950" y="390" width="70" height="70" as="geometry" />
        </mxCell>
        <mxCell id="NsWmeIEgaXkxdFXf4ZW7-13" value="PRN3" style="ellipse;whiteSpace=wrap;html=1;aspect=fixed;fillColor=#d5e8d4;strokeColor=#82b366;" vertex="1" parent="1">
          <mxGeometry x="950" y="530" width="70" height="70" as="geometry" />
        </mxCell>
        <mxCell id="NsWmeIEgaXkxdFXf4ZW7-20" value="W1" style="ellipse;whiteSpace=wrap;html=1;aspect=fixed;" vertex="1" parent="1">
          <mxGeometry x="1090" y="230" width="70" height="70" as="geometry" />
        </mxCell>
        <mxCell id="NsWmeIEgaXkxdFXf4ZW7-21" value="W1" style="ellipse;whiteSpace=wrap;html=1;aspect=fixed;" vertex="1" parent="1">
          <mxGeometry x="1090" y="390" width="70" height="70" as="geometry" />
        </mxCell>
        <mxCell id="NsWmeIEgaXkxdFXf4ZW7-22" value="W1" style="ellipse;whiteSpace=wrap;html=1;aspect=fixed;" vertex="1" parent="1">
          <mxGeometry x="1090" y="530" width="70" height="70" as="geometry" />
        </mxCell>
        <mxCell id="NsWmeIEgaXkxdFXf4ZW7-23" value="w11" style="ellipse;whiteSpace=wrap;html=1;aspect=fixed;fillStyle=hatch;fillColor=#fff2cc;strokeColor=#d6b656;" vertex="1" parent="1">
          <mxGeometry x="1260" y="230" width="70" height="70" as="geometry" />
        </mxCell>
        <mxCell id="NsWmeIEgaXkxdFXf4ZW7-24" value="w12" style="ellipse;whiteSpace=wrap;html=1;aspect=fixed;fillColor=#f8cecc;strokeColor=#b85450;fillStyle=hatch;" vertex="1" parent="1">
          <mxGeometry x="1260" y="390" width="70" height="70" as="geometry" />
        </mxCell>
        <mxCell id="NsWmeIEgaXkxdFXf4ZW7-25" value="w13" style="ellipse;whiteSpace=wrap;html=1;aspect=fixed;fillStyle=hatch;fillColor=#d5e8d4;strokeColor=#82b366;" vertex="1" parent="1">
          <mxGeometry x="1260" y="530" width="70" height="70" as="geometry" />
        </mxCell>
        <mxCell id="NsWmeIEgaXkxdFXf4ZW7-27" value="" style="endArrow=classic;html=1;rounded=0;entryX=0.013;entryY=0.827;entryDx=0;entryDy=0;entryPerimeter=0;" edge="1" parent="1" target="NsWmeIEgaXkxdFXf4ZW7-8">
          <mxGeometry width="50" height="50" relative="1" as="geometry">
            <mxPoint x="730" y="380" as="sourcePoint" />
            <mxPoint x="800" y="310" as="targetPoint" />
          </mxGeometry>
        </mxCell>
        <mxCell id="NsWmeIEgaXkxdFXf4ZW7-28" value="" style="endArrow=classic;html=1;rounded=0;entryX=0.008;entryY=0.346;entryDx=0;entryDy=0;entryPerimeter=0;" edge="1" parent="1" target="NsWmeIEgaXkxdFXf4ZW7-10">
          <mxGeometry width="50" height="50" relative="1" as="geometry">
            <mxPoint x="740" y="470" as="sourcePoint" />
            <mxPoint x="760" y="415" as="targetPoint" />
          </mxGeometry>
        </mxCell>
        <mxCell id="NsWmeIEgaXkxdFXf4ZW7-29" value="" style="endArrow=classic;html=1;rounded=0;entryX=0;entryY=0.5;entryDx=0;entryDy=0;" edge="1" parent="1" target="NsWmeIEgaXkxdFXf4ZW7-9">
          <mxGeometry width="50" height="50" relative="1" as="geometry">
            <mxPoint x="755" y="425" as="sourcePoint" />
            <mxPoint x="810" y="420" as="targetPoint" />
          </mxGeometry>
        </mxCell>
        <mxCell id="NsWmeIEgaXkxdFXf4ZW7-30" value="" style="endArrow=classic;html=1;rounded=0;" edge="1" parent="1">
          <mxGeometry width="50" height="50" relative="1" as="geometry">
            <mxPoint x="900" y="424.23" as="sourcePoint" />
            <mxPoint x="950" y="424.23" as="targetPoint" />
          </mxGeometry>
        </mxCell>
        <mxCell id="NsWmeIEgaXkxdFXf4ZW7-31" value="" style="endArrow=classic;html=1;rounded=0;" edge="1" parent="1">
          <mxGeometry width="50" height="50" relative="1" as="geometry">
            <mxPoint x="900" y="264.23" as="sourcePoint" />
            <mxPoint x="950" y="264.23" as="targetPoint" />
          </mxGeometry>
        </mxCell>
        <mxCell id="NsWmeIEgaXkxdFXf4ZW7-32" value="" style="endArrow=classic;html=1;rounded=0;" edge="1" parent="1">
          <mxGeometry width="50" height="50" relative="1" as="geometry">
            <mxPoint x="900" y="564.23" as="sourcePoint" />
            <mxPoint x="950" y="564.23" as="targetPoint" />
          </mxGeometry>
        </mxCell>
        <mxCell id="NsWmeIEgaXkxdFXf4ZW7-33" value="" style="endArrow=classic;html=1;rounded=0;" edge="1" parent="1">
          <mxGeometry width="50" height="50" relative="1" as="geometry">
            <mxPoint x="1190" y="424.23" as="sourcePoint" />
            <mxPoint x="1240" y="424.23" as="targetPoint" />
          </mxGeometry>
        </mxCell>
        <mxCell id="NsWmeIEgaXkxdFXf4ZW7-35" value="" style="endArrow=classic;html=1;rounded=0;" edge="1" parent="1">
          <mxGeometry width="50" height="50" relative="1" as="geometry">
            <mxPoint x="1190" y="564.23" as="sourcePoint" />
            <mxPoint x="1240" y="564.23" as="targetPoint" />
          </mxGeometry>
        </mxCell>
        <mxCell id="NsWmeIEgaXkxdFXf4ZW7-36" value="" style="verticalLabelPosition=bottom;verticalAlign=top;html=1;shape=mxgraph.basic.x;fillColor=#a20025;fontColor=#ffffff;strokeColor=#6F0000;" vertex="1" parent="1">
          <mxGeometry x="1035" y="250" width="40" height="30" as="geometry" />
        </mxCell>
        <mxCell id="NsWmeIEgaXkxdFXf4ZW7-37" value="" style="verticalLabelPosition=bottom;verticalAlign=top;html=1;shape=mxgraph.basic.x;fillColor=#a20025;fontColor=#ffffff;strokeColor=#6F0000;" vertex="1" parent="1">
          <mxGeometry x="1040" y="550" width="40" height="30" as="geometry" />
        </mxCell>
        <mxCell id="NsWmeIEgaXkxdFXf4ZW7-38" value="" style="verticalLabelPosition=bottom;verticalAlign=top;html=1;shape=mxgraph.basic.x;fillColor=#a20025;fontColor=#ffffff;strokeColor=#6F0000;" vertex="1" parent="1">
          <mxGeometry x="1040" y="410" width="40" height="30" as="geometry" />
        </mxCell>
        <mxCell id="NsWmeIEgaXkxdFXf4ZW7-47" value="" style="endArrow=classic;html=1;rounded=0;" edge="1" parent="1">
          <mxGeometry width="50" height="50" relative="1" as="geometry">
            <mxPoint x="1190" y="264.23" as="sourcePoint" />
            <mxPoint x="1240" y="264.23" as="targetPoint" />
          </mxGeometry>
        </mxCell>
        <mxCell id="NsWmeIEgaXkxdFXf4ZW7-48" value="W2" style="ellipse;whiteSpace=wrap;html=1;aspect=fixed;" vertex="1" parent="1">
          <mxGeometry x="670" y="825" width="80" height="80" as="geometry" />
        </mxCell>
        <mxCell id="NsWmeIEgaXkxdFXf4ZW7-49" value="RN1" style="ellipse;whiteSpace=wrap;html=1;aspect=fixed;fillColor=#e1d5e7;strokeColor=#9673a6;" vertex="1" parent="1">
          <mxGeometry x="818" y="670" width="70" height="70" as="geometry" />
        </mxCell>
        <mxCell id="NsWmeIEgaXkxdFXf4ZW7-50" value="RN2" style="ellipse;whiteSpace=wrap;html=1;aspect=fixed;fillColor=#ffe6cc;strokeColor=#d79b00;" vertex="1" parent="1">
          <mxGeometry x="820" y="830" width="70" height="70" as="geometry" />
        </mxCell>
        <mxCell id="NsWmeIEgaXkxdFXf4ZW7-51" value="RN3" style="ellipse;whiteSpace=wrap;html=1;aspect=fixed;fillColor=#dae8fc;strokeColor=#6c8ebf;" vertex="1" parent="1">
          <mxGeometry x="820" y="970" width="70" height="70" as="geometry" />
        </mxCell>
        <mxCell id="NsWmeIEgaXkxdFXf4ZW7-52" value="PRN1" style="ellipse;whiteSpace=wrap;html=1;aspect=fixed;fillColor=#e1d5e7;strokeColor=#9673a6;" vertex="1" parent="1">
          <mxGeometry x="950" y="670" width="70" height="70" as="geometry" />
        </mxCell>
        <mxCell id="NsWmeIEgaXkxdFXf4ZW7-53" value="PRN2" style="ellipse;whiteSpace=wrap;html=1;aspect=fixed;fillColor=#ffe6cc;strokeColor=#d79b00;" vertex="1" parent="1">
          <mxGeometry x="950" y="830" width="70" height="70" as="geometry" />
        </mxCell>
        <mxCell id="NsWmeIEgaXkxdFXf4ZW7-54" value="PRN3" style="ellipse;whiteSpace=wrap;html=1;aspect=fixed;fillColor=#dae8fc;strokeColor=#6c8ebf;" vertex="1" parent="1">
          <mxGeometry x="950" y="970" width="70" height="70" as="geometry" />
        </mxCell>
        <mxCell id="NsWmeIEgaXkxdFXf4ZW7-55" value="W2" style="ellipse;whiteSpace=wrap;html=1;aspect=fixed;" vertex="1" parent="1">
          <mxGeometry x="1090" y="670" width="70" height="70" as="geometry" />
        </mxCell>
        <mxCell id="NsWmeIEgaXkxdFXf4ZW7-56" value="W2" style="ellipse;whiteSpace=wrap;html=1;aspect=fixed;" vertex="1" parent="1">
          <mxGeometry x="1090" y="830" width="70" height="70" as="geometry" />
        </mxCell>
        <mxCell id="NsWmeIEgaXkxdFXf4ZW7-57" value="W2" style="ellipse;whiteSpace=wrap;html=1;aspect=fixed;" vertex="1" parent="1">
          <mxGeometry x="1090" y="970" width="70" height="70" as="geometry" />
        </mxCell>
        <mxCell id="NsWmeIEgaXkxdFXf4ZW7-58" value="w21" style="ellipse;whiteSpace=wrap;html=1;aspect=fixed;fillStyle=hatch;fillColor=#e1d5e7;strokeColor=#9673a6;" vertex="1" parent="1">
          <mxGeometry x="1260" y="670" width="70" height="70" as="geometry" />
        </mxCell>
        <mxCell id="NsWmeIEgaXkxdFXf4ZW7-59" value="w22" style="ellipse;whiteSpace=wrap;html=1;aspect=fixed;fillColor=#ffe6cc;strokeColor=#d79b00;fillStyle=hatch;" vertex="1" parent="1">
          <mxGeometry x="1260" y="830" width="70" height="70" as="geometry" />
        </mxCell>
        <mxCell id="NsWmeIEgaXkxdFXf4ZW7-60" value="w23" style="ellipse;whiteSpace=wrap;html=1;aspect=fixed;fillStyle=hatch;fillColor=#dae8fc;strokeColor=#6c8ebf;" vertex="1" parent="1">
          <mxGeometry x="1260" y="970" width="70" height="70" as="geometry" />
        </mxCell>
        <mxCell id="NsWmeIEgaXkxdFXf4ZW7-61" value="" style="endArrow=classic;html=1;rounded=0;entryX=0.013;entryY=0.827;entryDx=0;entryDy=0;entryPerimeter=0;" edge="1" parent="1" target="NsWmeIEgaXkxdFXf4ZW7-49">
          <mxGeometry width="50" height="50" relative="1" as="geometry">
            <mxPoint x="730" y="820" as="sourcePoint" />
            <mxPoint x="800" y="750" as="targetPoint" />
          </mxGeometry>
        </mxCell>
        <mxCell id="NsWmeIEgaXkxdFXf4ZW7-62" value="" style="endArrow=classic;html=1;rounded=0;entryX=0.008;entryY=0.346;entryDx=0;entryDy=0;entryPerimeter=0;" edge="1" parent="1" target="NsWmeIEgaXkxdFXf4ZW7-51">
          <mxGeometry width="50" height="50" relative="1" as="geometry">
            <mxPoint x="740" y="910" as="sourcePoint" />
            <mxPoint x="760" y="855" as="targetPoint" />
          </mxGeometry>
        </mxCell>
        <mxCell id="NsWmeIEgaXkxdFXf4ZW7-63" value="" style="endArrow=classic;html=1;rounded=0;entryX=0;entryY=0.5;entryDx=0;entryDy=0;" edge="1" parent="1" target="NsWmeIEgaXkxdFXf4ZW7-50">
          <mxGeometry width="50" height="50" relative="1" as="geometry">
            <mxPoint x="755" y="865" as="sourcePoint" />
            <mxPoint x="810" y="860" as="targetPoint" />
          </mxGeometry>
        </mxCell>
        <mxCell id="NsWmeIEgaXkxdFXf4ZW7-64" value="" style="endArrow=classic;html=1;rounded=0;" edge="1" parent="1">
          <mxGeometry width="50" height="50" relative="1" as="geometry">
            <mxPoint x="900" y="864.23" as="sourcePoint" />
            <mxPoint x="950" y="864.23" as="targetPoint" />
          </mxGeometry>
        </mxCell>
        <mxCell id="NsWmeIEgaXkxdFXf4ZW7-65" value="" style="endArrow=classic;html=1;rounded=0;" edge="1" parent="1">
          <mxGeometry width="50" height="50" relative="1" as="geometry">
            <mxPoint x="900" y="704.23" as="sourcePoint" />
            <mxPoint x="950" y="704.23" as="targetPoint" />
          </mxGeometry>
        </mxCell>
        <mxCell id="NsWmeIEgaXkxdFXf4ZW7-66" value="" style="endArrow=classic;html=1;rounded=0;" edge="1" parent="1">
          <mxGeometry width="50" height="50" relative="1" as="geometry">
            <mxPoint x="900" y="1004.23" as="sourcePoint" />
            <mxPoint x="950" y="1004.23" as="targetPoint" />
          </mxGeometry>
        </mxCell>
        <mxCell id="NsWmeIEgaXkxdFXf4ZW7-67" value="" style="endArrow=classic;html=1;rounded=0;" edge="1" parent="1">
          <mxGeometry width="50" height="50" relative="1" as="geometry">
            <mxPoint x="1190" y="864.23" as="sourcePoint" />
            <mxPoint x="1240" y="864.23" as="targetPoint" />
          </mxGeometry>
        </mxCell>
        <mxCell id="NsWmeIEgaXkxdFXf4ZW7-68" value="" style="endArrow=classic;html=1;rounded=0;" edge="1" parent="1">
          <mxGeometry width="50" height="50" relative="1" as="geometry">
            <mxPoint x="1190" y="1004.23" as="sourcePoint" />
            <mxPoint x="1240" y="1004.23" as="targetPoint" />
          </mxGeometry>
        </mxCell>
        <mxCell id="NsWmeIEgaXkxdFXf4ZW7-69" value="" style="verticalLabelPosition=bottom;verticalAlign=top;html=1;shape=mxgraph.basic.x;fillColor=#a20025;fontColor=#ffffff;strokeColor=#6F0000;" vertex="1" parent="1">
          <mxGeometry x="1035" y="690" width="40" height="30" as="geometry" />
        </mxCell>
        <mxCell id="NsWmeIEgaXkxdFXf4ZW7-70" value="" style="verticalLabelPosition=bottom;verticalAlign=top;html=1;shape=mxgraph.basic.x;fillColor=#a20025;fontColor=#ffffff;strokeColor=#6F0000;" vertex="1" parent="1">
          <mxGeometry x="1040" y="990" width="40" height="30" as="geometry" />
        </mxCell>
        <mxCell id="NsWmeIEgaXkxdFXf4ZW7-71" value="" style="verticalLabelPosition=bottom;verticalAlign=top;html=1;shape=mxgraph.basic.x;fillColor=#a20025;fontColor=#ffffff;strokeColor=#6F0000;" vertex="1" parent="1">
          <mxGeometry x="1040" y="850" width="40" height="30" as="geometry" />
        </mxCell>
        <mxCell id="NsWmeIEgaXkxdFXf4ZW7-72" value="" style="endArrow=classic;html=1;rounded=0;" edge="1" parent="1">
          <mxGeometry width="50" height="50" relative="1" as="geometry">
            <mxPoint x="1190" y="704.23" as="sourcePoint" />
            <mxPoint x="1240" y="704.23" as="targetPoint" />
          </mxGeometry>
        </mxCell>
        <mxCell id="hSROy9f2jwXjVhuR8Hyo-1" value="W3" style="ellipse;whiteSpace=wrap;html=1;aspect=fixed;" vertex="1" parent="1">
          <mxGeometry x="670" y="1285" width="80" height="80" as="geometry" />
        </mxCell>
        <mxCell id="hSROy9f2jwXjVhuR8Hyo-2" value="RN1" style="ellipse;whiteSpace=wrap;html=1;aspect=fixed;fillColor=#fff2cc;strokeColor=#d6b656;" vertex="1" parent="1">
          <mxGeometry x="820" y="1130" width="70" height="70" as="geometry" />
        </mxCell>
        <mxCell id="hSROy9f2jwXjVhuR8Hyo-3" value="RN2" style="ellipse;whiteSpace=wrap;html=1;aspect=fixed;fillColor=#f8cecc;strokeColor=#b85450;" vertex="1" parent="1">
          <mxGeometry x="820" y="1290" width="70" height="70" as="geometry" />
        </mxCell>
        <mxCell id="hSROy9f2jwXjVhuR8Hyo-4" value="RN3" style="ellipse;whiteSpace=wrap;html=1;aspect=fixed;fillColor=#d5e8d4;strokeColor=#82b366;" vertex="1" parent="1">
          <mxGeometry x="820" y="1430" width="70" height="70" as="geometry" />
        </mxCell>
        <mxCell id="hSROy9f2jwXjVhuR8Hyo-5" value="PRN1" style="ellipse;whiteSpace=wrap;html=1;aspect=fixed;fillColor=#fff2cc;strokeColor=#d6b656;" vertex="1" parent="1">
          <mxGeometry x="950" y="1130" width="70" height="70" as="geometry" />
        </mxCell>
        <mxCell id="hSROy9f2jwXjVhuR8Hyo-6" value="PRN2" style="ellipse;whiteSpace=wrap;html=1;aspect=fixed;fillColor=#f8cecc;strokeColor=#b85450;" vertex="1" parent="1">
          <mxGeometry x="950" y="1290" width="70" height="70" as="geometry" />
        </mxCell>
        <mxCell id="hSROy9f2jwXjVhuR8Hyo-7" value="PRN3" style="ellipse;whiteSpace=wrap;html=1;aspect=fixed;fillColor=#d5e8d4;strokeColor=#82b366;" vertex="1" parent="1">
          <mxGeometry x="950" y="1430" width="70" height="70" as="geometry" />
        </mxCell>
        <mxCell id="hSROy9f2jwXjVhuR8Hyo-8" value="W3" style="ellipse;whiteSpace=wrap;html=1;aspect=fixed;" vertex="1" parent="1">
          <mxGeometry x="1090" y="1130" width="70" height="70" as="geometry" />
        </mxCell>
        <mxCell id="hSROy9f2jwXjVhuR8Hyo-9" value="W3" style="ellipse;whiteSpace=wrap;html=1;aspect=fixed;" vertex="1" parent="1">
          <mxGeometry x="1090" y="1290" width="70" height="70" as="geometry" />
        </mxCell>
        <mxCell id="hSROy9f2jwXjVhuR8Hyo-10" value="W3" style="ellipse;whiteSpace=wrap;html=1;aspect=fixed;" vertex="1" parent="1">
          <mxGeometry x="1090" y="1430" width="70" height="70" as="geometry" />
        </mxCell>
        <mxCell id="hSROy9f2jwXjVhuR8Hyo-11" value="w31" style="ellipse;whiteSpace=wrap;html=1;aspect=fixed;fillStyle=cross-hatch;fillColor=#fff2cc;strokeColor=#d6b656;" vertex="1" parent="1">
          <mxGeometry x="1260" y="1130" width="70" height="70" as="geometry" />
        </mxCell>
        <mxCell id="hSROy9f2jwXjVhuR8Hyo-12" value="w32" style="ellipse;whiteSpace=wrap;html=1;aspect=fixed;fillColor=#f8cecc;strokeColor=#b85450;fillStyle=hatch;" vertex="1" parent="1">
          <mxGeometry x="1260" y="1290" width="70" height="70" as="geometry" />
        </mxCell>
        <mxCell id="hSROy9f2jwXjVhuR8Hyo-13" value="w33" style="ellipse;whiteSpace=wrap;html=1;aspect=fixed;fillStyle=hatch;fillColor=#d5e8d4;strokeColor=#82b366;" vertex="1" parent="1">
          <mxGeometry x="1260" y="1430" width="70" height="70" as="geometry" />
        </mxCell>
        <mxCell id="hSROy9f2jwXjVhuR8Hyo-14" value="" style="endArrow=classic;html=1;rounded=0;entryX=0.013;entryY=0.827;entryDx=0;entryDy=0;entryPerimeter=0;" edge="1" parent="1" target="hSROy9f2jwXjVhuR8Hyo-2">
          <mxGeometry width="50" height="50" relative="1" as="geometry">
            <mxPoint x="730" y="1280" as="sourcePoint" />
            <mxPoint x="800" y="1210" as="targetPoint" />
          </mxGeometry>
        </mxCell>
        <mxCell id="hSROy9f2jwXjVhuR8Hyo-15" value="" style="endArrow=classic;html=1;rounded=0;entryX=0.008;entryY=0.346;entryDx=0;entryDy=0;entryPerimeter=0;" edge="1" parent="1" target="hSROy9f2jwXjVhuR8Hyo-4">
          <mxGeometry width="50" height="50" relative="1" as="geometry">
            <mxPoint x="740" y="1370" as="sourcePoint" />
            <mxPoint x="760" y="1315" as="targetPoint" />
          </mxGeometry>
        </mxCell>
        <mxCell id="hSROy9f2jwXjVhuR8Hyo-16" value="" style="endArrow=classic;html=1;rounded=0;entryX=0;entryY=0.5;entryDx=0;entryDy=0;" edge="1" parent="1" target="hSROy9f2jwXjVhuR8Hyo-3">
          <mxGeometry width="50" height="50" relative="1" as="geometry">
            <mxPoint x="755" y="1325" as="sourcePoint" />
            <mxPoint x="810" y="1320" as="targetPoint" />
          </mxGeometry>
        </mxCell>
        <mxCell id="hSROy9f2jwXjVhuR8Hyo-17" value="" style="endArrow=classic;html=1;rounded=0;" edge="1" parent="1">
          <mxGeometry width="50" height="50" relative="1" as="geometry">
            <mxPoint x="900" y="1324.23" as="sourcePoint" />
            <mxPoint x="950" y="1324.23" as="targetPoint" />
          </mxGeometry>
        </mxCell>
        <mxCell id="hSROy9f2jwXjVhuR8Hyo-18" value="" style="endArrow=classic;html=1;rounded=0;" edge="1" parent="1">
          <mxGeometry width="50" height="50" relative="1" as="geometry">
            <mxPoint x="900" y="1164.23" as="sourcePoint" />
            <mxPoint x="950" y="1164.23" as="targetPoint" />
          </mxGeometry>
        </mxCell>
        <mxCell id="hSROy9f2jwXjVhuR8Hyo-19" value="" style="endArrow=classic;html=1;rounded=0;" edge="1" parent="1">
          <mxGeometry width="50" height="50" relative="1" as="geometry">
            <mxPoint x="900" y="1464.23" as="sourcePoint" />
            <mxPoint x="950" y="1464.23" as="targetPoint" />
          </mxGeometry>
        </mxCell>
        <mxCell id="hSROy9f2jwXjVhuR8Hyo-20" value="" style="endArrow=classic;html=1;rounded=0;" edge="1" parent="1">
          <mxGeometry width="50" height="50" relative="1" as="geometry">
            <mxPoint x="1190" y="1324.23" as="sourcePoint" />
            <mxPoint x="1240" y="1324.23" as="targetPoint" />
          </mxGeometry>
        </mxCell>
        <mxCell id="hSROy9f2jwXjVhuR8Hyo-21" value="" style="endArrow=classic;html=1;rounded=0;" edge="1" parent="1">
          <mxGeometry width="50" height="50" relative="1" as="geometry">
            <mxPoint x="1190" y="1464.23" as="sourcePoint" />
            <mxPoint x="1240" y="1464.23" as="targetPoint" />
          </mxGeometry>
        </mxCell>
        <mxCell id="hSROy9f2jwXjVhuR8Hyo-22" value="" style="verticalLabelPosition=bottom;verticalAlign=top;html=1;shape=mxgraph.basic.x;fillColor=#a20025;fontColor=#ffffff;strokeColor=#6F0000;" vertex="1" parent="1">
          <mxGeometry x="1035" y="1150" width="40" height="30" as="geometry" />
        </mxCell>
        <mxCell id="hSROy9f2jwXjVhuR8Hyo-23" value="" style="verticalLabelPosition=bottom;verticalAlign=top;html=1;shape=mxgraph.basic.x;fillColor=#a20025;fontColor=#ffffff;strokeColor=#6F0000;" vertex="1" parent="1">
          <mxGeometry x="1040" y="1450" width="40" height="30" as="geometry" />
        </mxCell>
        <mxCell id="hSROy9f2jwXjVhuR8Hyo-24" value="" style="verticalLabelPosition=bottom;verticalAlign=top;html=1;shape=mxgraph.basic.x;fillColor=#a20025;fontColor=#ffffff;strokeColor=#6F0000;" vertex="1" parent="1">
          <mxGeometry x="1040" y="1310" width="40" height="30" as="geometry" />
        </mxCell>
        <mxCell id="hSROy9f2jwXjVhuR8Hyo-25" value="" style="endArrow=classic;html=1;rounded=0;" edge="1" parent="1">
          <mxGeometry width="50" height="50" relative="1" as="geometry">
            <mxPoint x="1190" y="1164.23" as="sourcePoint" />
            <mxPoint x="1240" y="1164.23" as="targetPoint" />
          </mxGeometry>
        </mxCell>
        <mxCell id="hSROy9f2jwXjVhuR8Hyo-26" value="PEER 1" style="rounded=1;whiteSpace=wrap;html=1;fillStyle=hatch;" vertex="1" parent="1">
          <mxGeometry x="640" y="330" width="90" height="40" as="geometry" />
        </mxCell>
        <mxCell id="hSROy9f2jwXjVhuR8Hyo-29" value="" style="endArrow=classic;html=1;rounded=0;strokeColor=#ba1212;exitX=1;exitY=0.5;exitDx=0;exitDy=0;entryX=0;entryY=0.5;entryDx=0;entryDy=0;" edge="1" parent="1" source="NsWmeIEgaXkxdFXf4ZW7-58" target="hSROy9f2jwXjVhuR8Hyo-33">
          <mxGeometry width="50" height="50" relative="1" as="geometry">
            <mxPoint x="1500" y="640" as="sourcePoint" />
            <mxPoint x="1630" y="380" as="targetPoint" />
          </mxGeometry>
        </mxCell>
        <mxCell id="hSROy9f2jwXjVhuR8Hyo-30" value="" style="endArrow=classic;html=1;rounded=0;strokeColor=#ba1212;exitX=1;exitY=0.5;exitDx=0;exitDy=0;entryX=0;entryY=0.5;entryDx=0;entryDy=0;" edge="1" parent="1" target="hSROy9f2jwXjVhuR8Hyo-35">
          <mxGeometry width="50" height="50" relative="1" as="geometry">
            <mxPoint x="1329.999999999984" y="1150" as="sourcePoint" />
            <mxPoint x="1640" y="470" as="targetPoint" />
          </mxGeometry>
        </mxCell>
        <mxCell id="hSROy9f2jwXjVhuR8Hyo-31" value="" style="endArrow=classic;html=1;rounded=0;strokeColor=#ba1212;exitX=1;exitY=0.5;exitDx=0;exitDy=0;entryX=0;entryY=0.5;entryDx=0;entryDy=0;" edge="1" parent="1" source="NsWmeIEgaXkxdFXf4ZW7-23" target="hSROy9f2jwXjVhuR8Hyo-32">
          <mxGeometry width="50" height="50" relative="1" as="geometry">
            <mxPoint x="1500" y="430" as="sourcePoint" />
            <mxPoint x="1620" y="320" as="targetPoint" />
          </mxGeometry>
        </mxCell>
        <mxCell id="hSROy9f2jwXjVhuR8Hyo-32" value="w11" style="ellipse;whiteSpace=wrap;html=1;aspect=fixed;fillStyle=hatch;fillColor=#fff2cc;strokeColor=#d6b656;" vertex="1" parent="1">
          <mxGeometry x="1650" y="230" width="70" height="70" as="geometry" />
        </mxCell>
        <mxCell id="hSROy9f2jwXjVhuR8Hyo-33" value="w21" style="ellipse;whiteSpace=wrap;html=1;aspect=fixed;fillStyle=hatch;fillColor=#e1d5e7;strokeColor=#9673a6;" vertex="1" parent="1">
          <mxGeometry x="1645" y="350" width="70" height="70" as="geometry" />
        </mxCell>
        <mxCell id="hSROy9f2jwXjVhuR8Hyo-35" value="w31" style="ellipse;whiteSpace=wrap;html=1;aspect=fixed;fillStyle=cross-hatch;fillColor=#fff2cc;strokeColor=#d6b656;" vertex="1" parent="1">
          <mxGeometry x="1645" y="470" width="70" height="70" as="geometry" />
        </mxCell>
        <mxCell id="hSROy9f2jwXjVhuR8Hyo-36" value="w12" style="ellipse;whiteSpace=wrap;html=1;aspect=fixed;fillColor=#f8cecc;strokeColor=#b85450;fillStyle=hatch;" vertex="1" parent="1">
          <mxGeometry x="1645" y="690" width="70" height="70" as="geometry" />
        </mxCell>
        <mxCell id="hSROy9f2jwXjVhuR8Hyo-37" value="w22" style="ellipse;whiteSpace=wrap;html=1;aspect=fixed;fillColor=#ffe6cc;strokeColor=#d79b00;fillStyle=hatch;" vertex="1" parent="1">
          <mxGeometry x="1650" y="810" width="70" height="70" as="geometry" />
        </mxCell>
        <mxCell id="hSROy9f2jwXjVhuR8Hyo-38" value="w32" style="ellipse;whiteSpace=wrap;html=1;aspect=fixed;fillColor=#f8cecc;strokeColor=#b85450;fillStyle=hatch;" vertex="1" parent="1">
          <mxGeometry x="1655" y="920" width="70" height="70" as="geometry" />
        </mxCell>
        <mxCell id="hSROy9f2jwXjVhuR8Hyo-39" value="w13" style="ellipse;whiteSpace=wrap;html=1;aspect=fixed;fillStyle=hatch;fillColor=#d5e8d4;strokeColor=#82b366;" vertex="1" parent="1">
          <mxGeometry x="1650" y="1150" width="70" height="70" as="geometry" />
        </mxCell>
        <mxCell id="hSROy9f2jwXjVhuR8Hyo-40" value="w23" style="ellipse;whiteSpace=wrap;html=1;aspect=fixed;fillStyle=hatch;fillColor=#dae8fc;strokeColor=#6c8ebf;" vertex="1" parent="1">
          <mxGeometry x="1650" y="1280" width="70" height="70" as="geometry" />
        </mxCell>
        <mxCell id="hSROy9f2jwXjVhuR8Hyo-41" value="w33" style="ellipse;whiteSpace=wrap;html=1;aspect=fixed;fillStyle=hatch;fillColor=#d5e8d4;strokeColor=#82b366;" vertex="1" parent="1">
          <mxGeometry x="1650" y="1400" width="70" height="70" as="geometry" />
        </mxCell>
        <mxCell id="hSROy9f2jwXjVhuR8Hyo-42" value="" style="endArrow=classic;html=1;rounded=0;strokeColor=#3333FF;exitX=1;exitY=0.5;exitDx=0;exitDy=0;entryX=0;entryY=0.5;entryDx=0;entryDy=0;" edge="1" parent="1" source="NsWmeIEgaXkxdFXf4ZW7-59" target="hSROy9f2jwXjVhuR8Hyo-37">
          <mxGeometry width="50" height="50" relative="1" as="geometry">
            <mxPoint x="1490" y="740" as="sourcePoint" />
            <mxPoint x="1540" y="690" as="targetPoint" />
          </mxGeometry>
        </mxCell>
        <mxCell id="hSROy9f2jwXjVhuR8Hyo-43" value="" style="endArrow=classic;html=1;rounded=0;strokeColor=#3333FF;exitX=1;exitY=0.5;exitDx=0;exitDy=0;entryX=0;entryY=0.5;entryDx=0;entryDy=0;" edge="1" parent="1" source="hSROy9f2jwXjVhuR8Hyo-12" target="hSROy9f2jwXjVhuR8Hyo-38">
          <mxGeometry width="50" height="50" relative="1" as="geometry">
            <mxPoint x="1450" y="1000" as="sourcePoint" />
            <mxPoint x="1500" y="950" as="targetPoint" />
          </mxGeometry>
        </mxCell>
        <mxCell id="hSROy9f2jwXjVhuR8Hyo-44" value="" style="endArrow=classic;html=1;rounded=0;strokeColor=#3333FF;exitX=1;exitY=0.5;exitDx=0;exitDy=0;entryX=0;entryY=0.5;entryDx=0;entryDy=0;" edge="1" parent="1" source="NsWmeIEgaXkxdFXf4ZW7-24" target="hSROy9f2jwXjVhuR8Hyo-36">
          <mxGeometry width="50" height="50" relative="1" as="geometry">
            <mxPoint x="1510" y="760" as="sourcePoint" />
            <mxPoint x="1560" y="710" as="targetPoint" />
          </mxGeometry>
        </mxCell>
        <mxCell id="hSROy9f2jwXjVhuR8Hyo-45" value="" style="endArrow=classic;html=1;rounded=0;strokeColor=#009900;exitX=1;exitY=0.5;exitDx=0;exitDy=0;entryX=0;entryY=0.5;entryDx=0;entryDy=0;" edge="1" parent="1" source="NsWmeIEgaXkxdFXf4ZW7-25" target="hSROy9f2jwXjVhuR8Hyo-39">
          <mxGeometry width="50" height="50" relative="1" as="geometry">
            <mxPoint x="1540" y="980" as="sourcePoint" />
            <mxPoint x="1590" y="930" as="targetPoint" />
          </mxGeometry>
        </mxCell>
        <mxCell id="hSROy9f2jwXjVhuR8Hyo-46" value="" style="endArrow=classic;html=1;rounded=0;strokeColor=#009900;exitX=1;exitY=0.5;exitDx=0;exitDy=0;entryX=0;entryY=0.5;entryDx=0;entryDy=0;" edge="1" parent="1" source="NsWmeIEgaXkxdFXf4ZW7-60" target="hSROy9f2jwXjVhuR8Hyo-40">
          <mxGeometry width="50" height="50" relative="1" as="geometry">
            <mxPoint x="1550" y="990.0000000000002" as="sourcePoint" />
            <mxPoint x="1600" y="940.0000000000002" as="targetPoint" />
          </mxGeometry>
        </mxCell>
        <mxCell id="hSROy9f2jwXjVhuR8Hyo-47" value="" style="endArrow=classic;html=1;rounded=0;strokeColor=#009900;exitX=1.063;exitY=0.366;exitDx=0;exitDy=0;exitPerimeter=0;entryX=0;entryY=0.5;entryDx=0;entryDy=0;" edge="1" parent="1" source="hSROy9f2jwXjVhuR8Hyo-13" target="hSROy9f2jwXjVhuR8Hyo-41">
          <mxGeometry width="50" height="50" relative="1" as="geometry">
            <mxPoint x="1415" y="1340.0000000000002" as="sourcePoint" />
            <mxPoint x="1465" y="1290.0000000000002" as="targetPoint" />
          </mxGeometry>
        </mxCell>
        <mxCell id="hSROy9f2jwXjVhuR8Hyo-48" value="PEER 3" style="rounded=1;whiteSpace=wrap;html=1;fillStyle=hatch;" vertex="1" parent="1">
          <mxGeometry x="640" y="1210" width="90" height="40" as="geometry" />
        </mxCell>
        <mxCell id="hSROy9f2jwXjVhuR8Hyo-49" value="PEER 2" style="rounded=1;whiteSpace=wrap;html=1;fillStyle=hatch;" vertex="1" parent="1">
          <mxGeometry x="640" y="760" width="90" height="40" as="geometry" />
        </mxCell>
        <mxCell id="hSROy9f2jwXjVhuR8Hyo-51" value="" style="shape=curlyBracket;whiteSpace=wrap;html=1;rounded=1;flipH=1;labelPosition=right;verticalLabelPosition=middle;align=left;verticalAlign=middle;fillStyle=hatch;" vertex="1" parent="1">
          <mxGeometry x="1750" y="270" width="20" height="200" as="geometry" />
        </mxCell>
        <mxCell id="hSROy9f2jwXjVhuR8Hyo-52" value="" style="shape=curlyBracket;whiteSpace=wrap;html=1;rounded=1;flipH=1;labelPosition=right;verticalLabelPosition=middle;align=left;verticalAlign=middle;fillStyle=hatch;" vertex="1" parent="1">
          <mxGeometry x="1740" y="1210" width="20" height="200" as="geometry" />
        </mxCell>
        <mxCell id="hSROy9f2jwXjVhuR8Hyo-53" value="" style="shape=curlyBracket;whiteSpace=wrap;html=1;rounded=1;flipH=1;labelPosition=right;verticalLabelPosition=middle;align=left;verticalAlign=middle;fillStyle=hatch;" vertex="1" parent="1">
          <mxGeometry x="1740" y="740" width="20" height="200" as="geometry" />
        </mxCell>
        <mxCell id="hSROy9f2jwXjVhuR8Hyo-54" value="ST1" style="ellipse;whiteSpace=wrap;html=1;aspect=fixed;fillColor=#6d8764;strokeColor=#3A5431;fontColor=#ffffff;" vertex="1" parent="1">
          <mxGeometry x="1810" y="325" width="70" height="70" as="geometry" />
        </mxCell>
        <mxCell id="hSROy9f2jwXjVhuR8Hyo-55" value="ST2" style="ellipse;whiteSpace=wrap;html=1;aspect=fixed;fillColor=#dae8fc;strokeColor=#6c8ebf;" vertex="1" parent="1">
          <mxGeometry x="1810" y="790" width="70" height="70" as="geometry" />
        </mxCell>
        <mxCell id="hSROy9f2jwXjVhuR8Hyo-56" value="ST3" style="ellipse;whiteSpace=wrap;html=1;aspect=fixed;fillColor=#d5e8d4;strokeColor=#82b366;" vertex="1" parent="1">
          <mxGeometry x="1810" y="1270" width="70" height="70" as="geometry" />
        </mxCell>
        <mxCell id="hSROy9f2jwXjVhuR8Hyo-63" value="" style="edgeStyle=orthogonalEdgeStyle;rounded=0;orthogonalLoop=1;jettySize=auto;html=1;strokeColor=#450099;" edge="1" parent="1" source="hSROy9f2jwXjVhuR8Hyo-57" target="hSROy9f2jwXjVhuR8Hyo-62">
          <mxGeometry relative="1" as="geometry" />
        </mxCell>
        <mxCell id="hSROy9f2jwXjVhuR8Hyo-57" value="TOTAL WEIGHT" style="ellipse;whiteSpace=wrap;html=1;aspect=fixed;fillColor=#f0a30a;fontColor=#000000;strokeColor=#BD7000;" vertex="1" parent="1">
          <mxGeometry x="2000" y="780" width="80" height="80" as="geometry" />
        </mxCell>
        <mxCell id="hSROy9f2jwXjVhuR8Hyo-59" value="" style="endArrow=classic;html=1;rounded=0;strokeColor=#450099;entryX=0.5;entryY=1;entryDx=0;entryDy=0;" edge="1" parent="1" target="hSROy9f2jwXjVhuR8Hyo-57">
          <mxGeometry width="50" height="50" relative="1" as="geometry">
            <mxPoint x="1880" y="1310" as="sourcePoint" />
            <mxPoint x="1930" y="1260" as="targetPoint" />
          </mxGeometry>
        </mxCell>
        <mxCell id="hSROy9f2jwXjVhuR8Hyo-60" value="" style="endArrow=classic;html=1;rounded=0;strokeColor=#450099;entryX=0;entryY=0.5;entryDx=0;entryDy=0;" edge="1" parent="1" target="hSROy9f2jwXjVhuR8Hyo-57">
          <mxGeometry width="50" height="50" relative="1" as="geometry">
            <mxPoint x="1880" y="830.0000000000002" as="sourcePoint" />
            <mxPoint x="1930" y="780" as="targetPoint" />
          </mxGeometry>
        </mxCell>
        <mxCell id="hSROy9f2jwXjVhuR8Hyo-61" value="" style="endArrow=classic;html=1;rounded=0;strokeColor=#450099;entryX=0.5;entryY=0;entryDx=0;entryDy=0;" edge="1" parent="1" target="hSROy9f2jwXjVhuR8Hyo-57">
          <mxGeometry width="50" height="50" relative="1" as="geometry">
            <mxPoint x="1880" y="360.0000000000002" as="sourcePoint" />
            <mxPoint x="1930" y="310" as="targetPoint" />
          </mxGeometry>
        </mxCell>
        <mxCell id="hSROy9f2jwXjVhuR8Hyo-106" style="edgeStyle=orthogonalEdgeStyle;rounded=0;orthogonalLoop=1;jettySize=auto;html=1;entryX=0;entryY=0.5;entryDx=0;entryDy=0;strokeColor=#450099;" edge="1" parent="1" source="hSROy9f2jwXjVhuR8Hyo-62" target="hSROy9f2jwXjVhuR8Hyo-103">
          <mxGeometry relative="1" as="geometry" />
        </mxCell>
        <mxCell id="hSROy9f2jwXjVhuR8Hyo-107" style="edgeStyle=orthogonalEdgeStyle;rounded=0;orthogonalLoop=1;jettySize=auto;html=1;exitX=0.5;exitY=0;exitDx=0;exitDy=0;entryX=0;entryY=0.25;entryDx=0;entryDy=0;strokeColor=#450099;" edge="1" parent="1" source="hSROy9f2jwXjVhuR8Hyo-62" target="hSROy9f2jwXjVhuR8Hyo-102">
          <mxGeometry relative="1" as="geometry" />
        </mxCell>
        <mxCell id="hSROy9f2jwXjVhuR8Hyo-62" value="AVG &lt;br&gt;WEIGHT" style="ellipse;whiteSpace=wrap;html=1;aspect=fixed;fillColor=#e51400;fontColor=#ffffff;strokeColor=#B20000;" vertex="1" parent="1">
          <mxGeometry x="2160" y="780" width="80" height="80" as="geometry" />
        </mxCell>
        <mxCell id="hSROy9f2jwXjVhuR8Hyo-64" value="" style="shape=cross;whiteSpace=wrap;html=1;fillStyle=solid;fillColor=#e51400;fontColor=#ffffff;strokeColor=#B20000;" vertex="1" parent="1">
          <mxGeometry x="1675" y="1240" width="20" height="20" as="geometry" />
        </mxCell>
        <mxCell id="hSROy9f2jwXjVhuR8Hyo-74" value="" style="shape=cross;whiteSpace=wrap;html=1;fillStyle=solid;fillColor=#e51400;fontColor=#ffffff;strokeColor=#B20000;" vertex="1" parent="1">
          <mxGeometry x="1675" y="1365" width="20" height="20" as="geometry" />
        </mxCell>
        <mxCell id="hSROy9f2jwXjVhuR8Hyo-86" value="" style="shape=cross;whiteSpace=wrap;html=1;fillStyle=solid;fillColor=#e51400;fontColor=#ffffff;strokeColor=#B20000;" vertex="1" parent="1">
          <mxGeometry x="1680" y="780" width="20" height="20" as="geometry" />
        </mxCell>
        <mxCell id="hSROy9f2jwXjVhuR8Hyo-96" value="" style="shape=cross;whiteSpace=wrap;html=1;fillStyle=solid;fillColor=#e51400;fontColor=#ffffff;strokeColor=#B20000;" vertex="1" parent="1">
          <mxGeometry x="1680" y="890" width="20" height="20" as="geometry" />
        </mxCell>
        <mxCell id="hSROy9f2jwXjVhuR8Hyo-99" value="" style="shape=cross;whiteSpace=wrap;html=1;fillStyle=solid;fillColor=#e51400;fontColor=#ffffff;strokeColor=#B20000;" vertex="1" parent="1">
          <mxGeometry x="1680" y="320" width="20" height="20" as="geometry" />
        </mxCell>
        <mxCell id="hSROy9f2jwXjVhuR8Hyo-100" value="" style="shape=cross;whiteSpace=wrap;html=1;fillStyle=solid;fillColor=#e51400;fontColor=#ffffff;strokeColor=#B20000;" vertex="1" parent="1">
          <mxGeometry x="1680" y="440" width="20" height="20" as="geometry" />
        </mxCell>
        <mxCell id="hSROy9f2jwXjVhuR8Hyo-102" value="PEER 1" style="rounded=1;whiteSpace=wrap;html=1;fillStyle=hatch;" vertex="1" parent="1">
          <mxGeometry x="2410" y="570" width="90" height="40" as="geometry" />
        </mxCell>
        <mxCell id="hSROy9f2jwXjVhuR8Hyo-103" value="PEER 2" style="rounded=1;whiteSpace=wrap;html=1;fillStyle=hatch;" vertex="1" parent="1">
          <mxGeometry x="2420" y="790" width="90" height="40" as="geometry" />
        </mxCell>
        <mxCell id="hSROy9f2jwXjVhuR8Hyo-104" value="PEER 3" style="rounded=1;whiteSpace=wrap;html=1;fillStyle=hatch;" vertex="1" parent="1">
          <mxGeometry x="2410" y="1060" width="90" height="40" as="geometry" />
        </mxCell>
        <mxCell id="hSROy9f2jwXjVhuR8Hyo-105" value="" style="edgeStyle=orthogonalEdgeStyle;rounded=0;orthogonalLoop=1;jettySize=auto;html=1;strokeColor=#450099;entryX=0;entryY=0.5;entryDx=0;entryDy=0;exitX=0.5;exitY=1;exitDx=0;exitDy=0;" edge="1" parent="1" source="hSROy9f2jwXjVhuR8Hyo-62" target="hSROy9f2jwXjVhuR8Hyo-104">
          <mxGeometry relative="1" as="geometry">
            <mxPoint x="2200" y="898.1799999999997" as="sourcePoint" />
            <mxPoint x="2280" y="898.1799999999997" as="targetPoint" />
          </mxGeometry>
        </mxCell>
        <mxCell id="hSROy9f2jwXjVhuR8Hyo-108" value="AVG &lt;br&gt;WEIGHT" style="ellipse;whiteSpace=wrap;html=1;aspect=fixed;fillColor=#e51400;fontColor=#ffffff;strokeColor=#B20000;" vertex="1" parent="1">
          <mxGeometry x="2520" y="550" width="80" height="80" as="geometry" />
        </mxCell>
        <mxCell id="hSROy9f2jwXjVhuR8Hyo-109" value="AVG &lt;br&gt;WEIGHT" style="ellipse;whiteSpace=wrap;html=1;aspect=fixed;fillColor=#e51400;fontColor=#ffffff;strokeColor=#B20000;" vertex="1" parent="1">
          <mxGeometry x="2530" y="770" width="80" height="80" as="geometry" />
        </mxCell>
        <mxCell id="hSROy9f2jwXjVhuR8Hyo-110" value="AVG &lt;br&gt;WEIGHT" style="ellipse;whiteSpace=wrap;html=1;aspect=fixed;fillColor=#e51400;fontColor=#ffffff;strokeColor=#B20000;" vertex="1" parent="1">
          <mxGeometry x="2520" y="1040" width="80" height="80" as="geometry" />
        </mxCell>
        <mxCell id="hSROy9f2jwXjVhuR8Hyo-113" value="&lt;font style=&quot;font-size: 21px;&quot;&gt;The&amp;nbsp; distibuted averaged model&lt;/font&gt;" style="text;html=1;strokeColor=none;fillColor=none;align=center;verticalAlign=middle;whiteSpace=wrap;rounded=0;" vertex="1" parent="1">
          <mxGeometry x="2410" y="345" width="230" height="30" as="geometry" />
        </mxCell>
      </root>
    </mxGraphModel>
  </diagram>
  <diagram id="7BKbilfBAJZJugUc4H8m" name="Page-2">
    <mxGraphModel dx="1631" dy="674" grid="1" gridSize="10" guides="1" tooltips="1" connect="1" arrows="1" fold="1" page="1" pageScale="1" pageWidth="850" pageHeight="1100" math="0" shadow="0">
      <root>
        <mxCell id="0" />
        <mxCell id="1" parent="0" />
        <mxCell id="rKyBxEwYQQLy4hEYQHke-1" value="" style="ellipse;whiteSpace=wrap;html=1;aspect=fixed;fillColor=#76608a;strokeColor=#432D57;fontColor=#ffffff;" vertex="1" parent="1">
          <mxGeometry x="170" y="130" width="80" height="80" as="geometry" />
        </mxCell>
        <mxCell id="rKyBxEwYQQLy4hEYQHke-2" value="" style="ellipse;whiteSpace=wrap;html=1;aspect=fixed;fillColor=#f8cecc;strokeColor=#b85450;" vertex="1" parent="1">
          <mxGeometry x="320" y="60" width="80" height="80" as="geometry" />
        </mxCell>
        <mxCell id="rKyBxEwYQQLy4hEYQHke-3" value="" style="ellipse;whiteSpace=wrap;html=1;aspect=fixed;fillColor=#ffe6cc;strokeColor=#d79b00;rotation=-45;" vertex="1" parent="1">
          <mxGeometry x="160" y="280" width="90" height="90" as="geometry" />
        </mxCell>
        <mxCell id="rKyBxEwYQQLy4hEYQHke-4" value="" style="ellipse;whiteSpace=wrap;html=1;aspect=fixed;fillColor=#fff2cc;strokeColor=#d6b656;" vertex="1" parent="1">
          <mxGeometry x="320" y="390" width="80" height="80" as="geometry" />
        </mxCell>
        <mxCell id="rKyBxEwYQQLy4hEYQHke-5" value="" style="ellipse;whiteSpace=wrap;html=1;aspect=fixed;fillColor=#d5e8d4;strokeColor=#82b366;" vertex="1" parent="1">
          <mxGeometry x="460" y="330" width="80" height="80" as="geometry" />
        </mxCell>
        <mxCell id="rKyBxEwYQQLy4hEYQHke-6" value="" style="ellipse;whiteSpace=wrap;html=1;aspect=fixed;fillColor=#dae8fc;strokeColor=#6c8ebf;" vertex="1" parent="1">
          <mxGeometry x="490" y="160" width="80" height="80" as="geometry" />
        </mxCell>
        <mxCell id="rKyBxEwYQQLy4hEYQHke-12" value="" style="edgeStyle=orthogonalEdgeStyle;rounded=0;orthogonalLoop=1;jettySize=auto;html=1;strokeColor=#450099;fontSize=21;" edge="1" parent="1" source="rKyBxEwYQQLy4hEYQHke-7" target="rKyBxEwYQQLy4hEYQHke-2">
          <mxGeometry relative="1" as="geometry" />
        </mxCell>
        <mxCell id="rKyBxEwYQQLy4hEYQHke-13" value="" style="edgeStyle=orthogonalEdgeStyle;rounded=0;orthogonalLoop=1;jettySize=auto;html=1;strokeColor=#450099;fontSize=21;" edge="1" parent="1" source="rKyBxEwYQQLy4hEYQHke-7" target="rKyBxEwYQQLy4hEYQHke-4">
          <mxGeometry relative="1" as="geometry" />
        </mxCell>
        <mxCell id="rKyBxEwYQQLy4hEYQHke-7" value="" style="ellipse;whiteSpace=wrap;html=1;aspect=fixed;fillColor=#e1d5e7;strokeColor=#9673a6;" vertex="1" parent="1">
          <mxGeometry x="320" y="210" width="80" height="80" as="geometry" />
        </mxCell>
        <mxCell id="rKyBxEwYQQLy4hEYQHke-8" value="" style="endArrow=none;html=1;rounded=0;strokeColor=#450099;fontSize=21;exitX=0.95;exitY=0.769;exitDx=0;exitDy=0;exitPerimeter=0;" edge="1" parent="1" source="rKyBxEwYQQLy4hEYQHke-7" target="rKyBxEwYQQLy4hEYQHke-5">
          <mxGeometry width="50" height="50" relative="1" as="geometry">
            <mxPoint x="440" y="380" as="sourcePoint" />
            <mxPoint x="490" y="330" as="targetPoint" />
          </mxGeometry>
        </mxCell>
        <mxCell id="rKyBxEwYQQLy4hEYQHke-9" value="" style="endArrow=none;html=1;rounded=0;strokeColor=#450099;fontSize=21;exitX=1;exitY=0.394;exitDx=0;exitDy=0;exitPerimeter=0;entryX=0;entryY=0.656;entryDx=0;entryDy=0;entryPerimeter=0;" edge="1" parent="1" source="rKyBxEwYQQLy4hEYQHke-7" target="rKyBxEwYQQLy4hEYQHke-6">
          <mxGeometry width="50" height="50" relative="1" as="geometry">
            <mxPoint x="406" y="281.52" as="sourcePoint" />
            <mxPoint x="480.8884411282918" y="352.5679541401212" as="targetPoint" />
          </mxGeometry>
        </mxCell>
        <mxCell id="rKyBxEwYQQLy4hEYQHke-11" value="" style="endArrow=none;html=1;rounded=0;strokeColor=#450099;fontSize=21;exitX=0.975;exitY=0.706;exitDx=0;exitDy=0;exitPerimeter=0;entryX=0;entryY=0;entryDx=0;entryDy=0;" edge="1" parent="1" source="rKyBxEwYQQLy4hEYQHke-1" target="rKyBxEwYQQLy4hEYQHke-7">
          <mxGeometry width="50" height="50" relative="1" as="geometry">
            <mxPoint x="245.11" y="180" as="sourcePoint" />
            <mxPoint x="319.9984411282918" y="251.0479541401212" as="targetPoint" />
          </mxGeometry>
        </mxCell>
        <mxCell id="rKyBxEwYQQLy4hEYQHke-14" value="" style="endArrow=none;html=1;rounded=0;strokeColor=#450099;fontSize=21;exitX=1;exitY=1;exitDx=0;exitDy=0;entryX=0;entryY=1;entryDx=0;entryDy=0;" edge="1" parent="1" source="rKyBxEwYQQLy4hEYQHke-3" target="rKyBxEwYQQLy4hEYQHke-7">
          <mxGeometry width="50" height="50" relative="1" as="geometry">
            <mxPoint x="258" y="196.48000000000002" as="sourcePoint" />
            <mxPoint x="341.71572875253787" y="231.71572875253787" as="targetPoint" />
          </mxGeometry>
        </mxCell>
        <mxCell id="rKyBxEwYQQLy4hEYQHke-15" value="" style="ellipse;whiteSpace=wrap;html=1;aspect=fixed;fillColor=#e51400;strokeColor=#B20000;fontColor=#ffffff;" vertex="1" parent="1">
          <mxGeometry x="170" y="640" width="80" height="80" as="geometry" />
        </mxCell>
        <mxCell id="rKyBxEwYQQLy4hEYQHke-16" value="" style="ellipse;whiteSpace=wrap;html=1;aspect=fixed;fillColor=#e51400;strokeColor=#B20000;fontColor=#ffffff;" vertex="1" parent="1">
          <mxGeometry x="320" y="570" width="80" height="80" as="geometry" />
        </mxCell>
        <mxCell id="rKyBxEwYQQLy4hEYQHke-17" value="" style="ellipse;whiteSpace=wrap;html=1;aspect=fixed;fillColor=#e51400;strokeColor=#B20000;rotation=-45;fontColor=#ffffff;" vertex="1" parent="1">
          <mxGeometry x="160" y="790" width="90" height="90" as="geometry" />
        </mxCell>
        <mxCell id="rKyBxEwYQQLy4hEYQHke-18" value="" style="ellipse;whiteSpace=wrap;html=1;aspect=fixed;fillColor=#e51400;strokeColor=#B20000;fontColor=#ffffff;" vertex="1" parent="1">
          <mxGeometry x="320" y="900" width="80" height="80" as="geometry" />
        </mxCell>
        <mxCell id="rKyBxEwYQQLy4hEYQHke-19" value="" style="ellipse;whiteSpace=wrap;html=1;aspect=fixed;fillColor=#e51400;strokeColor=#B20000;fontColor=#ffffff;" vertex="1" parent="1">
          <mxGeometry x="460" y="840" width="80" height="80" as="geometry" />
        </mxCell>
        <mxCell id="rKyBxEwYQQLy4hEYQHke-20" value="" style="ellipse;whiteSpace=wrap;html=1;aspect=fixed;fillColor=#e51400;strokeColor=#B20000;fontColor=#ffffff;" vertex="1" parent="1">
          <mxGeometry x="490" y="670" width="80" height="80" as="geometry" />
        </mxCell>
        <mxCell id="rKyBxEwYQQLy4hEYQHke-21" value="" style="edgeStyle=orthogonalEdgeStyle;rounded=0;orthogonalLoop=1;jettySize=auto;html=1;strokeColor=#450099;fontSize=21;" edge="1" parent="1" source="rKyBxEwYQQLy4hEYQHke-23" target="rKyBxEwYQQLy4hEYQHke-16">
          <mxGeometry relative="1" as="geometry" />
        </mxCell>
        <mxCell id="rKyBxEwYQQLy4hEYQHke-22" value="" style="edgeStyle=orthogonalEdgeStyle;rounded=0;orthogonalLoop=1;jettySize=auto;html=1;strokeColor=#450099;fontSize=21;" edge="1" parent="1" source="rKyBxEwYQQLy4hEYQHke-23" target="rKyBxEwYQQLy4hEYQHke-18">
          <mxGeometry relative="1" as="geometry" />
        </mxCell>
        <mxCell id="rKyBxEwYQQLy4hEYQHke-23" value="" style="ellipse;whiteSpace=wrap;html=1;aspect=fixed;fillColor=#e51400;strokeColor=#B20000;fontColor=#ffffff;" vertex="1" parent="1">
          <mxGeometry x="320" y="720" width="80" height="80" as="geometry" />
        </mxCell>
        <mxCell id="rKyBxEwYQQLy4hEYQHke-24" value="" style="endArrow=none;html=1;rounded=0;strokeColor=#450099;fontSize=21;exitX=0.95;exitY=0.769;exitDx=0;exitDy=0;exitPerimeter=0;" edge="1" parent="1" source="rKyBxEwYQQLy4hEYQHke-23" target="rKyBxEwYQQLy4hEYQHke-19">
          <mxGeometry width="50" height="50" relative="1" as="geometry">
            <mxPoint x="440" y="890" as="sourcePoint" />
            <mxPoint x="490" y="840" as="targetPoint" />
          </mxGeometry>
        </mxCell>
        <mxCell id="rKyBxEwYQQLy4hEYQHke-25" value="" style="endArrow=none;html=1;rounded=0;strokeColor=#450099;fontSize=21;exitX=1;exitY=0.394;exitDx=0;exitDy=0;exitPerimeter=0;entryX=0;entryY=0.656;entryDx=0;entryDy=0;entryPerimeter=0;" edge="1" parent="1" source="rKyBxEwYQQLy4hEYQHke-23" target="rKyBxEwYQQLy4hEYQHke-20">
          <mxGeometry width="50" height="50" relative="1" as="geometry">
            <mxPoint x="406" y="791.52" as="sourcePoint" />
            <mxPoint x="480.8884411282918" y="862.5679541401212" as="targetPoint" />
          </mxGeometry>
        </mxCell>
        <mxCell id="rKyBxEwYQQLy4hEYQHke-26" value="" style="endArrow=none;html=1;rounded=0;strokeColor=#450099;fontSize=21;exitX=0.975;exitY=0.706;exitDx=0;exitDy=0;exitPerimeter=0;entryX=0;entryY=0;entryDx=0;entryDy=0;" edge="1" parent="1" source="rKyBxEwYQQLy4hEYQHke-15" target="rKyBxEwYQQLy4hEYQHke-23">
          <mxGeometry width="50" height="50" relative="1" as="geometry">
            <mxPoint x="245.11" y="690" as="sourcePoint" />
            <mxPoint x="319.9984411282918" y="761.0479541401212" as="targetPoint" />
          </mxGeometry>
        </mxCell>
        <mxCell id="rKyBxEwYQQLy4hEYQHke-27" value="" style="endArrow=none;html=1;rounded=0;strokeColor=#450099;fontSize=21;exitX=1;exitY=1;exitDx=0;exitDy=0;entryX=0;entryY=1;entryDx=0;entryDy=0;" edge="1" parent="1" source="rKyBxEwYQQLy4hEYQHke-17" target="rKyBxEwYQQLy4hEYQHke-23">
          <mxGeometry width="50" height="50" relative="1" as="geometry">
            <mxPoint x="258" y="706.48" as="sourcePoint" />
            <mxPoint x="341.71572875253787" y="741.7157287525379" as="targetPoint" />
          </mxGeometry>
        </mxCell>
        <mxCell id="rKyBxEwYQQLy4hEYQHke-28" value="Before Secure Average Computation" style="text;html=1;strokeColor=none;fillColor=none;align=center;verticalAlign=middle;whiteSpace=wrap;rounded=0;fontSize=21;" vertex="1" parent="1">
          <mxGeometry x="240" y="20" width="250" height="30" as="geometry" />
        </mxCell>
        <mxCell id="rKyBxEwYQQLy4hEYQHke-29" value="After Secure Average Computation" style="text;html=1;strokeColor=none;fillColor=none;align=center;verticalAlign=middle;whiteSpace=wrap;rounded=0;fontSize=21;" vertex="1" parent="1">
          <mxGeometry x="235" y="510" width="250" height="30" as="geometry" />
        </mxCell>
      </root>
    </mxGraphModel>
  </diagram>
</mxfile>
